<svg width="51" height="45" viewBox="0 0 51 45" fill="none" xmlns="http://www.w3.org/2000/svg">
<path d="M10.9167 27.345H12.4792C12.479 27.0715 12.3902 26.804 12.2237 26.5752C12.0572 26.3464 11.8202 26.1663 11.5417 26.0569L10.9167 27.345ZM40.0833 27.345L39.4583 26.0569C39.1798 26.1663 38.9428 26.3464 38.7763 26.5752C38.6098 26.804 38.521 27.0715 38.5208 27.345H40.0833ZM33.3125 13.125C33.3125 13.498 33.4771 13.8556 33.7702 14.1194C34.0632 14.3831 34.4606 14.5312 34.875 14.5312C35.2894 14.5312 35.6868 14.3831 35.9799 14.1194C36.2729 13.8556 36.4375 13.498 36.4375 13.125H33.3125ZM14.5625 13.125C14.5625 13.498 14.7271 13.8556 15.0201 14.1194C15.3132 14.3831 15.7106 14.5312 16.125 14.5312C16.5394 14.5312 16.9368 14.3831 17.2299 14.1194C17.5229 13.8556 17.6875 13.498 17.6875 13.125H14.5625ZM15.0833 7.96875C11.9063 7.96875 8.85931 9.10463 6.61278 11.1265C4.36625 13.1484 3.10417 15.8906 3.10417 18.75H6.22917C6.22917 16.6366 7.16202 14.6097 8.82249 13.1152C10.483 11.6208 12.7351 10.7813 15.0833 10.7812V7.96875ZM35.9167 10.7812C38.2649 10.7812 40.517 11.6208 42.1775 13.1152C43.838 14.6097 44.7708 16.6366 44.7708 18.75H47.8958C47.8958 15.8906 46.6338 13.1484 44.3872 11.1265C42.1407 9.10463 39.0937 7.96875 35.9167 7.96875V10.7812ZM31.75 39.8438H19.25V42.6562H31.75V39.8438ZM19.25 39.8438C17.2417 39.8438 15.8917 39.84 14.8854 39.7181C13.925 39.6019 13.5125 39.4012 13.2417 39.1556L11.0333 41.1469C11.9813 42 13.1625 42.3469 14.4708 42.5063C15.7333 42.66 17.3292 42.6562 19.25 42.6562V39.8438ZM9.35417 33.75C9.35417 35.4787 9.35 36.915 9.52083 38.0513C9.69583 39.2288 10.0833 40.2919 11.0313 41.145L13.2417 39.1575C12.9708 38.9138 12.7479 38.5425 12.6167 37.6762C12.4833 36.7725 12.4792 35.5575 12.4792 33.75H9.35417ZM38.5208 33.75C38.5208 35.5575 38.5167 36.7725 38.3813 37.6781C38.2521 38.5425 38.0292 38.9138 37.7563 39.1575L39.9688 41.145C40.9167 40.2919 41.3021 39.2288 41.4792 38.0513C41.65 36.915 41.6458 35.4787 41.6458 33.75H38.5208ZM31.75 42.6562C33.6708 42.6562 35.2667 42.66 36.5292 42.5063C37.8375 42.3488 39.0208 42 39.9688 41.145L37.7583 39.1575C37.4875 39.4013 37.075 39.6019 36.1125 39.72C35.1083 39.84 33.7583 39.8438 31.75 39.8438V42.6562ZM15.0833 10.7812C15.5292 10.7812 15.9646 10.8113 16.3917 10.8675L16.8479 8.085C16.2637 8.00744 15.6739 7.96859 15.0833 7.96875V10.7812ZM25.5 2.34375C23.2141 2.34375 20.9856 2.98809 19.1274 4.18628C17.2693 5.38448 15.8747 7.07636 15.1396 9.02438L18.0979 9.92813C18.6233 8.53652 19.6197 7.32793 20.9473 6.47208C22.2749 5.61622 23.867 5.15608 25.5 5.15625V2.34375ZM15.1396 9.02438C14.7563 10.0433 14.5614 11.1118 14.5625 12.1875H17.6875C17.6875 11.3944 17.8333 10.635 18.1 9.92813L15.1396 9.02438ZM35.9167 7.96875C35.3188 7.96875 34.7292 8.00812 34.1521 8.085L34.6104 10.8675C35.0429 10.81 35.4795 10.7812 35.9167 10.7812V7.96875ZM25.5 5.15625C27.1327 5.15647 28.7243 5.6168 30.0515 6.47262C31.3787 7.32845 32.3748 8.53682 32.9 9.92813L35.8583 9.02438C35.1233 7.07667 33.7291 5.385 31.8713 4.18683C30.0136 2.98866 27.7855 2.34414 25.5 2.34375V5.15625ZM32.9 9.92813C33.1667 10.635 33.3125 11.3944 33.3125 12.1875H36.4375C36.4375 11.0831 36.2333 10.02 35.8583 9.02438L32.9021 9.92813H32.9ZM12.4792 33.75V27.345H9.35417V33.75H12.4792ZM11.5417 26.0569C9.96225 25.4362 8.61835 24.4143 7.67472 23.1164C6.73108 21.8185 6.2287 20.3011 6.22917 18.75H3.10417C3.10401 20.8481 3.78393 22.9006 5.06059 24.6561C6.33726 26.4115 8.15521 27.7937 10.2917 28.6331L11.5417 26.0569ZM38.5208 27.345V33.75H41.6458V27.345H38.5208ZM44.7708 18.75C44.7713 20.3011 44.2689 21.8185 43.3253 23.1164C42.3817 24.4143 41.0378 25.4362 39.4583 26.0569L40.7083 28.6331C42.8448 27.7937 44.6628 26.4115 45.9394 24.6561C47.2161 22.9006 47.896 20.8481 47.8958 18.75H44.7708ZM33.3125 12.1875V13.125H36.4375V12.1875H33.3125ZM14.5625 12.1875V13.125H17.6875V12.1875H14.5625ZM25.5 18.7406L24.4188 19.7569C24.7097 20.0078 25.097 20.148 25.5 20.148C25.903 20.148 26.2904 20.0078 26.5813 19.7569L25.5 18.7406ZM24.4292 24.495C23.5604 23.9213 22.6 23.2013 21.8729 22.4475C21.1063 21.6488 20.8125 21.0281 20.8125 20.625H17.6875C17.6875 22.0687 18.6063 23.3456 19.5104 24.2869C20.4542 25.2694 21.6229 26.13 22.5813 26.7619L24.4292 24.495ZM20.8125 20.625C20.8125 19.545 21.3604 19.0763 21.8375 18.9244C22.3583 18.7594 23.325 18.8119 24.4208 19.7569L26.5813 17.7244C24.8625 16.2431 22.7042 15.6713 20.8042 16.2713C18.8583 16.8844 17.6875 18.5681 17.6875 20.625H20.8125ZM28.4167 26.7638C29.375 26.13 30.5458 25.2694 31.4896 24.2869C32.3938 23.3456 33.3125 22.0687 33.3125 20.625H30.1875C30.1875 21.0281 29.8938 21.6488 29.125 22.4475C28.4 23.2031 27.4396 23.9213 26.5708 24.495L28.4188 26.7638H28.4167ZM33.3125 20.625C33.3125 18.5681 32.1396 16.8844 30.1958 16.2713C28.2958 15.6713 26.1375 16.245 24.4188 17.7244L26.5813 19.7569C27.675 18.8119 28.6417 18.7594 29.1646 18.9244C29.6396 19.0744 30.1875 19.545 30.1875 20.625H33.3125ZM22.5833 26.7638C23.35 27.27 24.2125 27.9019 25.5 27.9019V25.0894C25.45 25.0894 25.4167 25.0894 25.3042 25.035C25 24.8719 24.7078 24.6916 24.4292 24.495L22.5813 26.7638H22.5833ZM26.5708 24.495C26.2922 24.6916 26 24.8719 25.6958 25.035C25.5833 25.0894 25.55 25.0894 25.5 25.0894V27.9019C26.7875 27.9019 27.65 27.27 28.4167 26.7638L26.5708 24.495Z" fill="url(#paint0_linear_101_33)"/>
<path d="M10.9167 33.75H40.0833" stroke="url(#paint1_linear_101_33)" stroke-width="1.5" stroke-linecap="round" stroke-linejoin="round"/>
<defs>
<linearGradient id="paint0_linear_101_33" x1="25.5" y1="2.34375" x2="25.5" y2="42.6563" gradientUnits="userSpaceOnUse">
<stop stop-color="#E10101"/>
<stop offset="1" stop-color="#D910C5"/>
</linearGradient>
<linearGradient id="paint1_linear_101_33" x1="25.5" y1="33.75" x2="25.5" y2="34.75" gradientUnits="userSpaceOnUse">
<stop stop-color="#E10101"/>
<stop offset="1" stop-color="#D910C5"/>
</linearGradient>
</defs>
</svg>
