<svg width="23" height="23" viewBox="0 0 23 23" fill="none" xmlns="http://www.w3.org/2000/svg">
<path d="M20.75 22.5L12.875 14.625C12.25 15.125 11.5312 15.5208 10.7187 15.8125C9.90625 16.1042 9.04167 16.25 8.125 16.25C5.85417 16.25 3.9325 15.4633 2.36 13.89C0.7875 12.3167 0.000833333 10.395 0 8.125C0 5.85417 0.786667 3.9325 2.36 2.36C3.93333 0.7875 5.855 0.000833333 8.125 0C10.3958 0 12.3175 0.786667 13.89 2.36C15.4625 3.93333 16.2492 5.855 16.25 8.125C16.25 9.04167 16.1042 9.90625 15.8125 10.7187C15.5208 11.5312 15.125 12.25 14.625 12.875L22.5 20.75L20.75 22.5ZM8.125 13.75C9.6875 13.75 11.0158 13.2029 12.11 12.1088C13.2042 11.0146 13.7508 9.68667 13.75 8.125C13.75 6.5625 13.2029 5.23417 12.1088 4.14C11.0146 3.04583 9.68667 2.49917 8.125 2.5C6.5625 2.5 5.23417 3.04708 4.14 4.14125C3.04583 5.23542 2.49917 6.56333 2.5 8.125C2.5 9.6875 3.04708 11.0158 4.14125 12.11C5.23542 13.2042 6.56333 13.7508 8.125 13.75Z" fill="white"/>
</svg>
